<svg width="800" height="250" xmlns="http://www.w3.org/2000/svg">
 <!-- Created with Method Draw - http://github.com/duopixel/Method-Draw/ -->

 <g>
  <title>background</title>
  <rect fill="none" id="canvas_background" height="252" width="802" y="-1" x="-1"/>
  <g display="none" overflow="visible" y="0" x="0" height="100%" width="100%" id="canvasGrid">
   <rect fill="url(#gridpattern)" stroke-width="0" y="0" x="0" height="100%" width="100%"/>
  </g>
 </g>
 <g>
  <title>Layer 1</title>
  <g id="svg_32">
   <g id="svg_4" fill="#000000" transform="matrix(0.118359, 0, 0, -0.117002, -182.228, 643.904)">
    <path fill="#614ea0" id="svg_5" d="m2418.402832,5391.189453c-174,-29 -381.000122,-138 -514.000122,-270c-303,-302 -374,-753.999512 -181,-1138.998779c109,-217 317,-397 547.000122,-476c134,-46 223,-58 373,-51c249,12 455,102 631,277c260,256 355,611.999268 258,960.998779c-97,349 -398,625 -757,695c-79,15 -275,17 -357,3zm355,-582l0,-192.999512l-75,0l-75,0l0,186.999512c0,102 3,189 7,192c3,4 37,7 75,7l68,0l0,-193zm-180,-26l0,-189.999512l-31,-50c-28,-44 -31,-57 -27,-105c10,-124.999023 127,-189.999023 244,-136.999023c93,41.999023 125,191.999023 54,255.999023c-18,17 -20,32 -20,196.999512c0,98 4,178 8,178c19,0 101,-61 136,-101c133,-155 142,-375.999512 21,-536.998535c-25,-33 -52,-62 -60,-66c-13,-4 -15,-36 -15,-191.000244l0,-185l-230,0l-230,0l0,64l0,64l-65,4c-69,4 -101,21 -139,72c-16,21 -22,46.999756 -26,119.000244l-5,92l-40,5c-55.000244,7 -55.000244,24 -5,150.999023c24,59 48,142 56,192c18,108.999512 41,154.999512 113,227.999512c58,57 114,92 186,115c80,25 75,37 75,-175zm171,-215.999512c41,-22 69,-71 69,-122c0,-52 -44,-108 -97,-122c-34,-9.999023 -42,-8.999023 -95,11c-59,22 -90,133 -52,187c40,56 116,76 175,46z"/>
    <path fill="#614ea0" id="svg_6" d="m2304.402832,4538.189941c-7,-8 -11,-27 -9,-43c2,-23 8,-29 35,-31c27,-3 35,1 45,22c9,22 8,29 -7,46c-21,24 -48,26 -64,6z"/>
    <path fill="#614ea0" id="svg_7" d="m3879.402832,4987.189453c-85,-30 -127,-80 -134,-159c-6,-72 2,-98 40,-141c35,-40.999512 72,-60.999512 171,-95.999512c38,-13 80,-33 93,-46c31.000244,-29 32.000244,-76 2,-97c-45,-32 -101,-15 -123,37l-13,32l-86,0c-51,0 -86,-4 -86,-10c0,-31 25,-90 50,-119c48,-54 120,-79.999023 220,-79.999023c96,0 147.999512,18.999023 192.999512,73.999023c53,63 59,167 12,230c-33,45 -54,56.999512 -167.999512,103.999512c-120,49 -151,80 -126,124c12,22 23,28 57,30c39,3 44,1 63,-32l21,-36l83.999512,0c79,0 84,1 84,21c0,58 -65,135 -137.999268,163c-52.000244,20 -162.000244,20 -216.000244,1z"/>
    <path fill="#614ea0" id="svg_8" d="m5196.402344,4988.189453c-88,-28 -150,-84 -201,-179c-24,-47 -27,-62 -27,-151.999512c0,-87 3,-107 26,-156c34,-73 96,-134 168,-167c46,-21.999023 71,-25.999023 141,-26.999023c73,0 94,4 147,28.999023c194,89 261,337.999512 139,519.999512c-43,64 -114,116 -186,136c-49,14 -157,11 -207,-4zm169,-146c43,-12 91,-63 108,-116c17,-51 7,-144.999512 -20,-188.999512c-45,-73 -170,-100 -240,-52c-59,40 -75,70 -78,155c-3,65.999512 0,83.999512 20,121.999512c39,74 120,105 210,80z"/>
    <path fill="#614ea0" id="svg_9" d="m4363.402344,4652.189941l0,-339.999023l80,0l79,0l3,117.999023l3,117l102,6c90,5 107,9 150,35c67,42 97,97.999512 97,183.999512c-1,107 -54,183 -149,209c-22,6 -113,11 -202,11l-163,0l0,-339.999512zm300,196.999512c37,-18 54,-56 46,-100c-9,-48 -45,-67 -126,-67l-60,0l0,83c0,46 3,87 7,90c11,12 107,7 133,-6z"/>
    <path fill="#614ea0" id="svg_10" d="m5723.402344,4927.189453l0,-65l90,0l90,0l0,-274.999512l0,-274.999023l85,0l85,0l0,274.999023l0,274.999512l90,0l90,0l0,65l0,65l-265,0l-265,0l0,-65z"/>
    <path fill="#614ea0" id="svg_11" d="m6343.402344,4652.189941l0,-339.999023l215,0l215,0l0,64.999023l0,65l-130,0l-130,0l0,75l0,75l115,0l115,0l0,65l0,64.999512l-115,0l-115,0l0,70l0,70l130,0l130,0l0,65l0,65l-215,0l-215,0l0,-339.999512z"/>
    <path fill="#614ea0" id="svg_12" d="m6883.402344,4652.189941l0,-339.999023l80,0l80,0l2,207.999023l3,206.999512l139,-206.999512l139,-207.999023l84,0l83,0l0,339.999023l0,339.999512l-85,0l-85,0l-2,-206l-3,-204.999512l-134,204.999512l-133,206l-84,0l-84,0l0,-339.999512z"/>
    <path fill="#614ea0" id="svg_13" d="m7623.402344,4764.189453c0,-263.999512 7,-302.999512 70,-374.999512c53,-59 111,-81.999023 210,-81.999023c123,1 208.999512,50.999023 255.999512,149.999023c23,48 24,58 24,292.999512l0,242l-80,0l-79.999512,0l0,-222c0,-202.999512 -2,-225.999512 -20,-254.999512c-26,-44 -54,-56 -113,-50c-40,3 -55,10 -73,32c-30,38 -34,71 -34,297.999512l0,197l-80,0l-80,0l0,-228z"/>
    <path fill="#614ea0" id="svg_14" d="m4208.402344,4178.190918c-16,-13 -28,-27 -25,-30c7,-7 70,33 70,45c0,15 -13,10 -45,-15z"/>
    <path fill="#614ea0" id="svg_15" d="m4577.402344,4191.190918c-10,-17 13,-36 27,-22c12,12 4,33 -11,33c-5,0 -12,-5 -16,-11z"/>
    <path fill="#614ea0" id="svg_16" d="m3793.402832,4058.190674c0,-95 3,-116 15,-116c11,0 15,19 17,88l3,87.000244l35,-87.000244c24,-60 40,-88 51,-88c11,0 27,28 50,88l34,87.000244l3,-87.000244c2,-69 6,-88 17,-88c12,0 15,21 15,115c0,106.000244 -2,115.000244 -19,115.000244c-14,0 -28,-23 -59,-97.000244l-41,-98l-17,40c-9,22 -27,65 -39,95.000244c-16,39 -29,56 -44,58c-20,3 -21,0 -21,-112.000244z"/>
    <path fill="#614ea0" id="svg_17" d="m7443.402344,4146.190918c0,-14 -4,-23 -10,-19c-5,3 -10,-1 -10,-9c0,-9 5,-16.000488 10,-16.000488c6,0 10,-27.999756 10,-63.999756c0,-45 5,-69 16,-80c17,-18 64,-22 64,-6c0,6 -4,10 -9,10c-25,0 -41,34 -41,86c0,50.999756 1,53.999756 25,53.999756c16,0 25,6.000488 25,15.000488c0,9 -6,15 -12,14c-28,-3 -38,2 -38,21c0,11 -7,20 -15,20c-9,0 -15,-10 -15,-26z"/>
    <path fill="#614ea0" id="svg_18" d="m4120.402832,4125.190918c-14,-13 -7,-138.000244 9,-161.000244c18.999512,-27 77.999512,-30 105.999512,-5c17,15 18,15 18,0c0,-10 7,-17 15,-17c12,0 15,17 15,96c0,72.000244 -3,95.000244 -12,92.000244c-8,-3 -15,-30.000488 -18,-70.000244c-5,-71 -20,-98 -55,-98c-39,0 -55,30 -55,103c0,62.000244 -6,78.000244 -22.999512,60.000244z"/>
    <path fill="#614ea0" id="svg_19" d="m4393.402344,4119.190918c-27,-14 -38,-53.000244 -21,-70.000244c6,-6 30,-18 54,-27c30,-11 42,-21 42,-35c0,-29 -48,-32 -73,-5c-14,15 -22,18 -27,10c-13,-21 26,-50 66,-50c88,0 91,74 4,102c-29,10 -40,19 -40,33c0,25.999756 52,35.000244 61,11c8,-20 34,-21 34,-2c0,32.000244 -62,53.000244 -100,33.000244z"/>
    <path fill="#614ea0" id="svg_20" d="m4736.402344,4122.190918c-57,-23.000488 -70,-124.000244 -23,-162.000244c35,-28 95,-24 128,9c23,23 24,28 10,31c-9,2 -26,-6 -37,-17c-12,-12 -30,-21 -41,-21c-29,0 -60,36 -60,70c0,59 72,94.000244 104,49c8,-11 22,-19 32,-17c15,3 15,6 -7,31c-26,30.000244 -72,42.000244 -106,27.000244z"/>
    <path fill="#614ea0" id="svg_21" d="m4976.402344,4117.190918c-34,-15.000488 -47,-42.000244 -44,-95.000244c4,-68 84,-108 131,-65c18,16 20,16 20,2c0,-10 7,-17 15,-17c12,0 15,17 15,89c0,86.000244 -14,129.000244 -27,82.000244c-5,-19.000244 -7,-20.000244 -22,-8c-26,23 -54,27 -88,12zm87,-35.000244c56,-56 -10,-148 -76,-105c-33,21 -34,87 -2,109c30,21.000244 54,20.000244 78,-4z"/>
    <path fill="#614ea0" id="svg_22" d="m5467.402344,4119.190918c-4,-13 -10,-14 -24,-7c-34,18 -85,12 -108,-13.000488c-32,-33.999756 -31,-104.999756 2,-135.999756c29,-27 79,-30 106,-6c20,18 20,17 20,-43c0,-48 3,-62 15,-62c16,0 16,4 17,168c1,55 -4,98.000244 -10,104.000244c-8,8 -13,7 -18,-5zm-26,-33.000244c44,-30 17,-124 -36,-124c-36,0 -62,29 -62,70c0,40 26,69.999756 60,69.999756c9,0 26,-6.999756 38,-15.999756z"/>
    <path fill="#614ea0" id="svg_23" d="m5579.402344,4125.190918c-3,-3 -6,-33.000244 -6,-65.000244c0,-64 20,-114 47,-120c25,-6 75,9 85,24c5,10 8,8 8,-4c0,-10 7,-18 15,-18c13,0 15,15 13,93c-3,106.000244 -21,125.000244 -26,27c-3,-71 -20,-100 -58,-100c-35,0 -54,36 -54,102c0,53.000244 -9,76.000244 -24,61.000244z"/>
    <path fill="#614ea0" id="svg_24" d="m5886.402344,4125.190918c-60,-11 -85,-112.000244 -38,-158.000244c40,-41 145,-26 145,21c0,20 -16,18 -40,-6c-25,-25 -62,-26 -83,-2c-29,31 -22,54 16,52c89,-5 117,-1 117,19c0,44.999756 -62,84.000244 -117,74.000244zm71,-45.000244c9,-12 16,-26 16,-30c0,-5 -27,-8 -60,-8c-64,0 -73,9 -43,42c23,25.000244 68,23.000244 87,-4z"/>
    <path fill="#614ea0" id="svg_25" d="m6237.402344,4118.190918c-58,-26.000244 -68,-123.000244 -17,-162.000244c30,-22 96,-17 121,9c39,41 21,51 -27,16c-34,-25 -64,-19 -87,17c-42,63 41,139.000244 91,84c19,-21 45,-27 45,-10c0,15 -38,50.000244 -54,50.000244c-8,0 -20,2 -28,5c-7,2 -27,-2 -44,-9z"/>
    <path fill="#614ea0" id="svg_26" d="m6487.402344,4122.190918c-51,-21.000488 -72,-106.000244 -36,-149.000244c25,-31 72,-42 110,-26c37,16 52,42 52,89c0,62.999756 -69,110.000244 -126,86.000244zm74,-36.000244c16,-11 22,-25 22,-54c0,-62 -58,-92 -100,-50c-38,38 -13,119.999756 38,119.999756c10,0 28,-6.999756 40,-15.999756z"/>
    <path fill="#614ea0" id="svg_27" d="m6693.402344,4037.190674c0,-78 3,-95 15,-95c12,0 15,14 15,63c0,69 17,96.999756 58,96.999756c38,0 52,-25.999756 52,-95.999756c0,-50 3,-64 15,-64c12,0 15,14 15,70c0,62 -3,74 -25,96.000244c-21,21 -31,24 -58,19c-18,-4 -37,-13 -43,-21c-10,-12.000244 -12,-11.000244 -17,6c-3,11 -10,20 -16,20c-7,0 -11,-33.000488 -11,-95.000244z"/>
    <path fill="#614ea0" id="svg_28" d="m6995.402344,4121.190918c-62,-18.000488 -78,-105.000244 -30,-156.000244c30,-32 96,-32 126,0c12,13 22,26 22,30c0,14 -28,6 -45,-13c-10,-11 -29,-20 -42,-20c-26,0 -66,35 -60,53c3,11 21,13 125,16c48,2 12,80.000244 -43,94.000244c-11,3 -35,1 -53,-4zm72,-35.000244c32,-32 20,-44 -44,-44c-62,0 -68,8 -37,48c13,17.000244 62,15.000244 81,-4z"/>
    <path fill="#614ea0" id="svg_29" d="m7246.402344,4125.190918c-60,-11 -85,-112.000244 -38,-158.000244c34,-35 96,-35 132,1c18,18 22,29 14,37c-7,7 -17,3 -35,-16c-30,-32 -59,-34 -86,-7c-39,39 -12,119.999756 40,119.999756c11,0 29,-8.999756 41,-20.999756c11,-11 27,-19 36,-17c14,2 12,7 -8,30c-25,27.000244 -58,38.000244 -96,31.000244z"/>
    <path fill="#614ea0" id="svg_30" d="m7636.402344,4117.190918c-35,-15.000488 -55,-62.000244 -46,-108.000244c11,-59 91,-90 133,-52c18,16 20,16 20,2c0,-10 7,-17 15,-17c12,0 15,17 15,90c0,73.000244 -3,90.000244 -15,90.000244c-8,0 -15,-7 -15,-17c0,-14.000244 -2,-15.000244 -17,-1.000488c-28,24.000488 -55,28.000488 -90,13.000488zm87,-35.000244c56,-56 -10,-148 -76,-105c-33,21 -34,87 -2,109c30,21.000244 54,20.000244 78,-4z"/>
    <path fill="#614ea0" id="svg_31" d="m4573.402344,4032.190674c0,-73 3,-90 15,-90c15,0 18,5 18,35c0,117 -4,145.000244 -18,145.000244c-12,0 -15,-17 -15,-90.000244z"/>
   </g>
  </g>
 </g>
</svg>