<?xml version="1.0" standalone="no"?>
<!DOCTYPE svg PUBLIC "-//W3C//DTD SVG 20010904//EN"
 "http://www.w3.org/TR/2001/REC-SVG-20010904/DTD/svg10.dtd">
<svg version="1.0" xmlns="http://www.w3.org/2000/svg"
 width="472.000000pt" height="472.000000pt" viewBox="0 0 472.000000 472.000000"
 preserveAspectRatio="xMidYMid meet">

<g transform="translate(0.000000,472.000000) scale(0.100000,-0.100000)"
fill="#000000" stroke="none">
<path d="M0 2360 l0 -2360 2360 0 2360 0 0 2360 0 2360 -2360 0 -2360 0 0
-2360z m2730 2145 c728 -126 1327 -573 1650 -1230 306 -621 306 -1347 0 -1970
-325 -662 -951 -1119 -1688 -1232 -134 -21 -476 -23 -612 -4 -483 66 -920 278
-1269 616 -382 370 -614 843 -671 1373 -16 142 -8 460 15 592 70 414 247 791
518 1106 355 412 821 667 1382 755 153 23 524 21 675 -6z"/>
<path d="M2462 3598 c-9 -9 -12 -124 -12 -456 0 -419 1 -444 18 -437 50 21 84
26 152 26 68 0 102 -5 153 -26 16 -7 17 18 17 437 0 332 -3 447 -12 456 -8 8
-58 12 -158 12 -100 0 -150 -4 -158 -12z"/>
<path d="M2255 3521 c-182 -46 -330 -129 -469 -261 -92 -88 -151 -168 -200
-269 -40 -83 -59 -163 -81 -332 -13 -108 -22 -135 -115 -369 -55 -140 -100
-268 -100 -286 0 -56 30 -74 121 -74 l76 0 5 -177 c6 -200 19 -252 83 -332 87
-109 184 -151 350 -151 l105 0 0 -150 0 -150 525 0 525 0 0 414 0 414 78 78
c266 267 357 635 245 989 -71 224 -230 425 -429 543 l-89 53 -3 -412 -2 -411
36 -40 c20 -23 48 -66 63 -97 23 -49 26 -68 26 -161 0 -99 -2 -108 -33 -168
-140 -269 -503 -298 -673 -55 -101 145 -90 353 25 480 l36 40 0 452 c0 423 -1
451 -17 450 -10 0 -49 -8 -88 -18z m-407 -975 c50 -48 45 -132 -11 -167 -46
-29 -103 -20 -139 21 -88 97 55 237 150 146z"/>
<path d="M2530 2635 c-102 -33 -193 -139 -209 -242 -16 -109 21 -208 104 -281
110 -97 280 -97 390 0 83 73 120 172 104 279 -27 179 -219 300 -389 244z"/>
</g>
</svg>
