<?xml version="1.0" standalone="no"?>
<!DOCTYPE svg PUBLIC "-//W3C//DTD SVG 20010904//EN"
 "http://www.w3.org/TR/2001/REC-SVG-20010904/DTD/svg10.dtd">
<svg version="1.0" xmlns="http://www.w3.org/2000/svg"
 width="704.000000pt" height="280.000000pt" viewBox="0 0 704.000000 280.000000"
 preserveAspectRatio="xMidYMid meet">

<g transform="translate(0.000000,280.000000) scale(0.100000,-0.100000)"
fill="#000000" stroke="none">
<path d="M0 1400 l0 -1400 3520 0 3520 0 0 1400 0 1400 -3520 0 -3520 0 0
-1400z m1402 936 c359 -70 660 -346 757 -695 97 -349 2 -705 -258 -961 -176
-175 -382 -265 -631 -277 -150 -7 -239 5 -373 51 -230 79 -438 259 -547 476
-193 385 -122 837 181 1139 133 132 340 241 514 270 82 14 278 12 357 -3z
m1320 -402 c73 -28 138 -105 138 -163 0 -20 -5 -21 -84 -21 l-84 0 -21 36
c-19 33 -24 35 -63 32 -34 -2 -45 -8 -57 -30 -25 -44 6 -75 126 -124 114 -47
135 -59 168 -104 47 -63 41 -167 -12 -230 -45 -55 -97 -74 -193 -74 -100 0
-172 26 -220 80 -25 29 -50 88 -50 119 0 6 35 10 86 10 l86 0 13 -32 c22 -52
78 -69 123 -37 30 21 29 68 -2 97 -13 13 -55 33 -93 46 -99 35 -136 55 -171
96 -38 43 -46 69 -40 141 7 79 49 129 134 159 54 19 164 19 216 -1z m1308 6
c72 -20 143 -72 186 -136 122 -182 55 -431 -139 -520 -53 -25 -74 -29 -147
-29 -70 1 -95 5 -141 27 -72 33 -134 94 -168 167 -23 49 -26 69 -26 156 0 90
3 105 27 152 70 131 165 191 308 192 36 1 81 -4 100 -9z m-675 -11 c95 -26
148 -102 149 -209 0 -86 -30 -142 -97 -184 -43 -26 -60 -30 -150 -35 l-102 -6
-3 -117 -3 -118 -79 0 -80 0 0 340 0 340 163 0 c89 0 180 -5 202 -11z m1525
-54 l0 -65 -90 0 -90 0 0 -275 0 -275 -85 0 -85 0 0 275 0 275 -90 0 -90 0 0
65 0 65 265 0 265 0 0 -65z m520 0 l0 -65 -130 0 -130 0 0 -70 0 -70 115 0
115 0 0 -65 0 -65 -115 0 -115 0 0 -75 0 -75 130 0 130 0 0 -65 0 -65 -215 0
-215 0 0 340 0 340 215 0 215 0 0 -65z m411 -141 l134 -205 3 205 2 206 85 0
85 0 0 -340 0 -340 -83 0 -84 0 -139 208 -139 207 -3 -207 -2 -208 -80 0 -80
0 0 340 0 340 84 0 84 0 133 -206z m599 9 c0 -227 4 -260 34 -298 18 -22 33
-29 73 -32 59 -6 87 6 113 50 18 29 20 52 20 255 l0 222 80 0 80 0 0 -242 c0
-235 -1 -245 -24 -293 -47 -99 -133 -149 -256 -150 -99 0 -157 23 -210 82 -63
72 -70 111 -70 375 l0 228 80 0 80 0 0 -197z m-3530 -602 c0 -12 -63 -52 -70
-45 -5 6 50 54 63 54 4 0 7 -4 7 -9z m356 -2 c10 -17 -13 -36 -27 -22 -12 12
-4 33 11 33 5 0 12 -5 16 -11z m-751 -79 c12 -30 30 -73 39 -95 l17 -40 41 98
c31 74 45 97 59 97 17 0 19 -9 19 -115 0 -94 -3 -115 -15 -115 -11 0 -15 19
-17 88 l-3 87 -34 -87 c-23 -60 -39 -88 -50 -88 -11 0 -27 28 -51 88 l-35 87
-3 -87 c-2 -69 -6 -88 -17 -88 -12 0 -15 21 -15 116 0 112 1 115 21 112 15 -2
28 -19 44 -58z m3615 40 c0 -19 10 -24 38 -21 6 1 12 -5 12 -14 0 -9 -9 -15
-25 -15 -24 0 -25 -3 -25 -54 0 -52 16 -86 41 -86 5 0 9 -4 9 -10 0 -16 -47
-12 -64 6 -11 11 -16 35 -16 80 0 36 -4 64 -10 64 -5 0 -10 7 -10 16 0 8 5 12
10 9 6 -4 10 5 10 19 0 16 6 26 15 26 8 0 15 -9 15 -20z m-3330 -87 c0 -73 16
-103 55 -103 35 0 50 27 55 98 3 40 10 67 18 70 9 3 12 -20 12 -92 0 -79 -3
-96 -15 -96 -8 0 -15 7 -15 17 0 15 -1 15 -18 0 -28 -25 -87 -22 -106 5 -16
23 -23 148 -9 161 17 18 23 2 23 -60z m337 45 c7 -6 13 -17 13 -24 0 -19 -26
-18 -34 2 -9 24 -61 15 -61 -11 0 -14 11 -23 40 -33 87 -28 84 -102 -4 -102
-40 0 -79 29 -66 50 5 8 13 5 27 -10 25 -27 73 -24 73 5 0 14 -12 24 -42 35
-54 20 -66 32 -61 61 6 43 76 59 115 27z m362 -15 c22 -25 22 -28 7 -31 -10
-2 -24 6 -32 17 -32 45 -104 10 -104 -49 0 -34 31 -70 60 -70 11 0 29 9 41 21
11 11 28 19 37 17 14 -3 13 -8 -10 -31 -20 -20 -37 -27 -66 -27 -54 0 -82 25
-89 77 -13 98 92 149 156 76z m222 10 c15 -12 17 -11 22 8 13 47 27 4 27 -82
0 -72 -3 -89 -15 -89 -8 0 -15 7 -15 17 0 14 -2 14 -20 -2 -47 -43 -127 -3
-131 65 -3 53 10 80 44 95 34 15 62 11 88 -12z m431 -85 c-1 -164 -1 -168 -17
-168 -12 0 -15 14 -15 62 0 60 0 61 -20 43 -27 -24 -77 -21 -106 6 -33 31 -34
102 -2 136 23 25 74 31 108 13 14 -7 20 -6 24 7 5 12 10 13 18 5 6 -6 11 -49
10 -104z m108 44 c0 -66 19 -102 54 -102 38 0 55 29 58 100 5 98 23 79 26 -27
2 -78 0 -93 -13 -93 -8 0 -15 8 -15 18 0 12 -3 14 -8 4 -10 -15 -60 -30 -85
-24 -27 6 -47 56 -47 120 0 32 3 62 6 65 15 15 24 -8 24 -61z m378 31 c12 -13
22 -33 22 -44 0 -20 -28 -24 -117 -19 -38 2 -45 -21 -16 -52 21 -24 58 -23 83
2 24 24 40 26 40 6 0 -23 -41 -46 -83 -46 -52 0 -87 35 -87 88 0 91 97 131
158 65z m328 27 c16 0 54 -35 54 -50 0 -17 -26 -11 -45 10 -50 55 -133 -21
-91 -84 23 -36 53 -42 87 -17 48 35 66 25 27 -16 -25 -26 -91 -31 -121 -9 -51
39 -41 136 17 162 17 7 37 11 44 9 8 -3 20 -5 28 -5z m282 -26 c24 -27 30 -81
11 -115 -26 -50 -114 -54 -151 -8 -36 43 -15 128 36 149 32 13 78 2 104 -26z
m129 16 c5 -17 7 -18 17 -6 6 8 25 17 43 21 27 5 37 2 58 -19 22 -22 25 -34
25 -96 0 -56 -3 -70 -15 -70 -12 0 -15 14 -15 64 0 70 -14 96 -52 96 -41 0
-58 -28 -58 -97 0 -49 -3 -63 -15 -63 -12 0 -15 17 -15 95 0 62 4 95 11 95 6
0 13 -9 16 -20z m371 -13 c12 -11 22 -31 22 -44 0 -17 -6 -23 -22 -24 -104 -3
-122 -5 -125 -16 -6 -18 34 -53 60 -53 13 0 32 9 42 20 17 19 45 27 45 13 0
-4 -10 -17 -22 -30 -30 -32 -96 -32 -126 0 -48 51 -32 138 30 156 40 11 66 5
96 -22z m251 -5 c20 -23 22 -28 8 -30 -9 -2 -25 6 -36 17 -26 26 -55 27 -81 1
-39 -39 -12 -120 40 -120 12 0 32 12 46 27 18 19 28 23 35 16 21 -21 -34 -63
-81 -63 -55 0 -90 34 -90 88 0 92 98 131 159 64z m384 10 c15 -14 17 -13 17 1
0 10 7 17 15 17 12 0 15 -17 15 -90 0 -73 -3 -90 -15 -90 -8 0 -15 7 -15 17 0
14 -2 14 -20 -2 -42 -38 -122 -7 -133 52 -9 46 11 93 46 108 35 15 62 11 90
-13z m-3122 -47 c3 -118 3 -115 -16 -115 -12 0 -15 17 -15 90 0 73 3 90 15 90
12 0 15 -14 16 -65z"/>
<path d="M1257 1943 c-4 -3 -7 -90 -7 -192 l0 -187 75 0 75 0 0 193 0 193 -68
0 c-38 0 -72 -3 -75 -7z"/>
<path d="M1145 1906 c-72 -23 -128 -58 -186 -115 -72 -73 -95 -119 -113 -228
-8 -50 -32 -133 -56 -192 -50 -127 -50 -144 5 -151 l40 -5 5 -92 c4 -72 10
-98 26 -119 38 -51 70 -68 139 -72 l65 -4 0 -64 0 -64 230 0 230 0 0 185 c0
155 2 187 15 191 8 4 35 33 60 66 121 161 112 382 -21 537 -35 40 -117 101
-136 101 -4 0 -8 -80 -8 -178 0 -165 2 -180 20 -197 71 -64 39 -214 -54 -256
-117 -53 -234 12 -244 137 -4 48 -1 61 27 105 l31 50 0 190 c0 212 5 200 -75
175z m-150 -426 c15 -17 16 -24 7 -46 -10 -21 -18 -25 -45 -22 -27 2 -33 8
-35 31 -6 53 38 75 73 37z"/>
<path d="M1264 1511 c-46 -28 -64 -59 -64 -110 0 -72 30 -108 112 -134 30 -10
86 13 117 49 95 108 -42 270 -165 195z"/>
<path d="M3850 1778 c-67 -34 -92 -90 -88 -190 3 -85 19 -115 78 -155 70 -48
195 -21 240 52 27 44 37 138 20 189 -36 109 -148 155 -250 104z"/>
<path d="M3157 1803 c-4 -3 -7 -44 -7 -90 l0 -83 60 0 c81 0 117 19 126 67 8
44 -9 82 -46 100 -26 13 -122 18 -133 6z"/>
<path d="M3612 1034 c-32 -22 -31 -88 2 -109 66 -43 132 49 76 105 -24 24 -48
25 -78 4z"/>
<path d="M3992 1034 c-16 -11 -22 -25 -22 -54 0 -41 26 -70 62 -70 53 0 80 94
36 124 -12 9 -29 16 -38 16 -9 0 -26 -7 -38 -16z"/>
<path d="M4497 1032 c-30 -33 -21 -42 43 -42 33 0 60 3 60 8 0 4 -7 18 -16 30
-19 27 -64 29 -87 4z"/>
<path d="M5110 1030 c-38 -38 -13 -120 38 -120 36 0 62 29 62 70 0 62 -58 92
-100 50z"/>
<path d="M5613 1038 c-31 -40 -25 -48 37 -48 45 0 60 4 60 14 0 38 -74 63 -97
34z"/>
<path d="M6272 1034 c-32 -22 -31 -88 2 -109 66 -43 132 49 76 105 -24 24 -48
25 -78 4z"/>
</g>
</svg>
