<svg width="800" height="600" xmlns="http://www.w3.org/2000/svg">
 <!-- Created with Method Draw - http://github.com/duopixel/Method-Draw/ -->

 <g>
  <title>background</title>
  <rect fill="#fff" id="canvas_background" height="602" width="802" y="-1" x="-1"/>
  <g display="none" overflow="visible" y="0" x="0" height="100%" width="100%" id="canvasGrid">
   <rect fill="url(#gridpattern)" stroke-width="0" y="0" x="0" height="100%" width="100%"/>
  </g>
 </g>
 <g>
  <title>Layer 1</title>
  <g id="svg_32">
   <g id="svg_4" fill="#000000" transform="matrix(0.0284091, 0, 0, -0.0284091, 0, 199.716)">
    <path fill="#ffffff" id="svg_5" d="m11598.714844,-2565.799805c-174,-29 -381,-138 -514,-270c-303,-302 -374,-754 -181,-1139c109,-217 317,-397 547,-476c134,-46 223,-58 373,-51c249,12 455,102 631,277c260,256 355,612 258,961c-97,349 -398,625 -757,695c-79,15 -275,17 -357,3zm355,-582l0,-193l-75,0l-75,0l0,187c0,102 3,189 7,192c3,4 37,7 75,7l68,0l0,-193zm-180,-26l0,-190l-31,-50c-28,-44 -31,-57 -27,-105c10,-125 127,-190 244,-137c93,42 125,192 54,256c-18,17 -20,32 -20,197c0,98 4,178 8,178c19,0 101,-61 136,-101c133,-155 142,-376 21,-537c-25,-33 -52,-62 -60,-66c-13,-4 -15,-36 -15,-191l0,-185l-230,0l-230,0l0,64l0,64l-65,4c-69,4 -101,21 -139,72c-16,21 -22,47 -26,119l-5,92l-40,5c-55,7 -55,24 -5,151c24,59 48,142 56,192c18,109 41,155 113,228c58,57 114,92 186,115c80,25 75,37 75,-175zm171,-216c41,-22 69,-71 69,-122c0,-52 -44,-108 -97,-122c-34,-10 -42,-9 -95,11c-59,22 -90,133 -52,187c40,56 116,76 175,46z"/>
    <path fill="#ffffff" id="svg_6" d="m11484.714844,-3418.799805c-7,-8 -11,-27 -9,-43c2,-23 8,-29 35,-31c27,-3 35,1 45,22c9,22 8,29 -7,46c-21,24 -48,26 -64,6z"/>
    <path fill="#ffffff" id="svg_7" d="m13059.714844,-2969.799805c-85,-30 -127,-80 -134,-159c-6,-72 2,-98 40,-141c35,-41 72,-61 171,-96c38,-13 80,-33 93,-46c31,-29 32,-76 2,-97c-45,-32 -101,-15 -123,37l-13,32l-86,0c-51,0 -86,-4 -86,-10c0,-31 25,-90 50,-119c48,-54 120,-80 220,-80c96,0 148,19 193,74c53,63 59,167 12,230c-33,45 -54,57 -168,104c-120,49 -151,80 -126,124c12,22 23,28 57,30c39,3 44,1 63,-32l21,-36l84,0c79,0 84,1 84,21c0,58 -65,135 -138,163c-52,20 -162,20 -216,1z"/>
    <path fill="#ffffff" id="svg_8" d="m14376.714844,-2968.799805c-88,-28 -150,-84 -201,-179c-24,-47 -27,-62 -27,-152c0,-87 3,-107 26,-156c34,-73 96,-134 168,-167c46,-22 71,-26 141,-27c73,0 94,4 147,29c194,89 261,338 139,520c-43,64 -114,116 -186,136c-49,14 -157,11 -207,-4zm169,-146c43,-12 91,-63 108,-116c17,-51 7,-145 -20,-189c-45,-73 -170,-100 -240,-52c-59,40 -75,70 -78,155c-3,66 0,84 20,122c39,74 120,105 210,80z"/>
    <path fill="#ffffff" id="svg_9" d="m13543.714844,-3304.799805l0,-340l80,0l79,0l3,118l3,117l102,6c90,5 107,9 150,35c67,42 97,98 97,184c-1,107 -54,183 -149,209c-22,6 -113,11 -202,11l-163,0l0,-340zm300,197c37,-18 54,-56 46,-100c-9,-48 -45,-67 -126,-67l-60,0l0,83c0,46 3,87 7,90c11,12 107,7 133,-6z"/>
    <path fill="#ffffff" id="svg_10" d="m14903.714844,-3029.799805l0,-65l90,0l90,0l0,-275l0,-275l85,0l85,0l0,275l0,275l90,0l90,0l0,65l0,65l-265,0l-265,0l0,-65z"/>
    <path fill="#ffffff" id="svg_11" d="m15523.714844,-3304.799805l0,-340l215,0l215,0l0,65l0,65l-130,0l-130,0l0,75l0,75l115,0l115,0l0,65l0,65l-115,0l-115,0l0,70l0,70l130,0l130,0l0,65l0,65l-215,0l-215,0l0,-340z"/>
    <path fill="#ffffff" id="svg_12" d="m16063.714844,-3304.799805l0,-340l80,0l80,0l2,208l3,207l139,-207l139,-208l84,0l83,0l0,340l0,340l-85,0l-85,0l-2,-206l-3,-205l-134,205l-133,206l-84,0l-84,0l0,-340z"/>
    <path fill="#ffffff" id="svg_13" d="m16803.714844,-3192.799805c0,-264 7,-303 70,-375c53,-59 111,-82 210,-82c123,1 209,51 256,150c23,48 24,58 24,293l0,242l-80,0l-80,0l0,-222c0,-203 -2,-226 -20,-255c-26,-44 -54,-56 -113,-50c-40,3 -55,10 -73,32c-30,38 -34,71 -34,298l0,197l-80,0l-80,0l0,-228z"/>
    <path fill="#ffffff" id="svg_14" d="m13388.714844,-3778.799805c-16,-13 -28,-27 -25,-30c7,-7 70,33 70,45c0,15 -13,10 -45,-15z"/>
    <path fill="#ffffff" id="svg_15" d="m13757.714844,-3765.799805c-10,-17 13,-36 27,-22c12,12 4,33 -11,33c-5,0 -12,-5 -16,-11z"/>
    <path fill="#ffffff" id="svg_16" d="m12973.714844,-3898.799805c0,-95 3,-116 15,-116c11,0 15,19 17,88l3,87l35,-87c24,-60 40,-88 51,-88c11,0 27,28 50,88l34,87l3,-87c2,-69 6,-88 17,-88c12,0 15,21 15,115c0,106 -2,115 -19,115c-14,0 -28,-23 -59,-97l-41,-98l-17,40c-9,22 -27,65 -39,95c-16,39 -29,56 -44,58c-20,3 -21,0 -21,-112z"/>
    <path fill="#ffffff" id="svg_17" d="m16623.714844,-3810.799805c0,-14 -4,-23 -10,-19c-5,3 -10,-1 -10,-9c0,-9 5,-16 10,-16c6,0 10,-28 10,-64c0,-45 5,-69 16,-80c17,-18 64,-22 64,-6c0,6 -4,10 -9,10c-25,0 -41,34 -41,86c0,51 1,54 25,54c16,0 25,6 25,15c0,9 -6,15 -12,14c-28,-3 -38,2 -38,21c0,11 -7,20 -15,20c-9,0 -15,-10 -15,-26z"/>
    <path fill="#ffffff" id="svg_18" d="m13300.714844,-3831.799805c-14,-13 -7,-138 9,-161c19,-27 78,-30 106,-5c17,15 18,15 18,0c0,-10 7,-17 15,-17c12,0 15,17 15,96c0,72 -3,95 -12,92c-8,-3 -15,-30 -18,-70c-5,-71 -20,-98 -55,-98c-39,0 -55,30 -55,103c0,62 -6,78 -23,60z"/>
    <path fill="#ffffff" id="svg_19" d="m13573.714844,-3837.799805c-27,-14 -38,-53 -21,-70c6,-6 30,-18 54,-27c30,-11 42,-21 42,-35c0,-29 -48,-32 -73,-5c-14,15 -22,18 -27,10c-13,-21 26,-50 66,-50c88,0 91,74 4,102c-29,10 -40,19 -40,33c0,26 52,35 61,11c8,-20 34,-21 34,-2c0,32 -62,53 -100,33z"/>
    <path fill="#ffffff" id="svg_20" d="m13916.714844,-3834.799805c-57,-23 -70,-124 -23,-162c35,-28 95,-24 128,9c23,23 24,28 10,31c-9,2 -26,-6 -37,-17c-12,-12 -30,-21 -41,-21c-29,0 -60,36 -60,70c0,59 72,94 104,49c8,-11 22,-19 32,-17c15,3 15,6 -7,31c-26,30 -72,42 -106,27z"/>
    <path fill="#ffffff" id="svg_21" d="m14156.714844,-3839.799805c-34,-15 -47,-42 -44,-95c4,-68 84,-108 131,-65c18,16 20,16 20,2c0,-10 7,-17 15,-17c12,0 15,17 15,89c0,86 -14,129 -27,82c-5,-19 -7,-20 -22,-8c-26,23 -54,27 -88,12zm87,-35c56,-56 -10,-148 -76,-105c-33,21 -34,87 -2,109c30,21 54,20 78,-4z"/>
    <path fill="#ffffff" id="svg_22" d="m14647.714844,-3837.799805c-4,-13 -10,-14 -24,-7c-34,18 -85,12 -108,-13c-32,-34 -31,-105 2,-136c29,-27 79,-30 106,-6c20,18 20,17 20,-43c0,-48 3,-62 15,-62c16,0 16,4 17,168c1,55 -4,98 -10,104c-8,8 -13,7 -18,-5zm-26,-33c44,-30 17,-124 -36,-124c-36,0 -62,29 -62,70c0,40 26,70 60,70c9,0 26,-7 38,-16z"/>
    <path fill="#ffffff" id="svg_23" d="m14759.714844,-3831.799805c-3,-3 -6,-33 -6,-65c0,-64 20,-114 47,-120c25,-6 75,9 85,24c5,10 8,8 8,-4c0,-10 7,-18 15,-18c13,0 15,15 13,93c-3,106 -21,125 -26,27c-3,-71 -20,-100 -58,-100c-35,0 -54,36 -54,102c0,53 -9,76 -24,61z"/>
    <path fill="#ffffff" id="svg_24" d="m15066.714844,-3831.799805c-60,-11 -85,-112 -38,-158c40,-41 145,-26 145,21c0,20 -16,18 -40,-6c-25,-25 -62,-26 -83,-2c-29,31 -22,54 16,52c89,-5 117,-1 117,19c0,45 -62,84 -117,74zm71,-45c9,-12 16,-26 16,-30c0,-5 -27,-8 -60,-8c-64,0 -73,9 -43,42c23,25 68,23 87,-4z"/>
    <path fill="#ffffff" id="svg_25" d="m15417.714844,-3838.799805c-58,-26 -68,-123 -17,-162c30,-22 96,-17 121,9c39,41 21,51 -27,16c-34,-25 -64,-19 -87,17c-42,63 41,139 91,84c19,-21 45,-27 45,-10c0,15 -38,50 -54,50c-8,0 -20,2 -28,5c-7,2 -27,-2 -44,-9z"/>
    <path fill="#ffffff" id="svg_26" d="m15667.714844,-3834.799805c-51,-21 -72,-106 -36,-149c25,-31 72,-42 110,-26c37,16 52,42 52,89c0,63 -69,110 -126,86zm74,-36c16,-11 22,-25 22,-54c0,-62 -58,-92 -100,-50c-38,38 -13,120 38,120c10,0 28,-7 40,-16z"/>
    <path fill="#ffffff" id="svg_27" d="m15873.714844,-3919.799805c0,-78 3,-95 15,-95c12,0 15,14 15,63c0,69 17,97 58,97c38,0 52,-26 52,-96c0,-50 3,-64 15,-64c12,0 15,14 15,70c0,62 -3,74 -25,96c-21,21 -31,24 -58,19c-18,-4 -37,-13 -43,-21c-10,-12 -12,-11 -17,6c-3,11 -10,20 -16,20c-7,0 -11,-33 -11,-95z"/>
    <path fill="#ffffff" id="svg_28" d="m16175.714844,-3835.799805c-62,-18 -78,-105 -30,-156c30,-32 96,-32 126,0c12,13 22,26 22,30c0,14 -28,6 -45,-13c-10,-11 -29,-20 -42,-20c-26,0 -66,35 -60,53c3,11 21,13 125,16c48,2 12,80 -43,94c-11,3 -35,1 -53,-4zm72,-35c32,-32 20,-44 -44,-44c-62,0 -68,8 -37,48c13,17 62,15 81,-4z"/>
    <path fill="#ffffff" id="svg_29" d="m16426.714844,-3831.799805c-60,-11 -85,-112 -38,-158c34,-35 96,-35 132,1c18,18 22,29 14,37c-7,7 -17,3 -35,-16c-30,-32 -59,-34 -86,-7c-39,39 -12,120 40,120c11,0 29,-9 41,-21c11,-11 27,-19 36,-17c14,2 12,7 -8,30c-25,27 -58,38 -96,31z"/>
    <path fill="#ffffff" id="svg_30" d="m16816.714844,-3839.799805c-35,-15 -55,-62 -46,-108c11,-59 91,-90 133,-52c18,16 20,16 20,2c0,-10 7,-17 15,-17c12,0 15,17 15,90c0,73 -3,90 -15,90c-8,0 -15,-7 -15,-17c0,-14 -2,-15 -17,-1c-28,24 -55,28 -90,13zm87,-35c56,-56 -10,-148 -76,-105c-33,21 -34,87 -2,109c30,21 54,20 78,-4z"/>
    <path fill="#ffffff" id="svg_31" d="m13753.714844,-3924.799805c0,-73 3,-90 15,-90c15,0 18,5 18,35c0,117 -4,145 -18,145c-12,0 -15,-17 -15,-90z"/>
   </g>
  </g>
 </g>
</svg>