<svg xmlns="http://www.w3.org/2000/svg" version="1.0" width="704.000000" height="703.000000" preserveAspectRatio="xMidYMid meet" style=""><rect id="backgroundrect" width="100%" height="100%" x="0" y="0" fill="none" stroke="none"/>


<g class="currentLayer" style=""><title>Layer 1</title><g transform="translate(0,703) scale(0.10000000149011612,-0.10000000149011612) " fill="#ffffff" stroke="none" id="svg_1" class="selected" fill-opacity="1">
<path d="M1045 4509 c-174 -29 -381 -138 -514 -270 -303 -302 -374 -754 -181 -1139 109 -217 317 -397 547 -476 134 -46 223 -58 373 -51 249 12 455 102 631 277 260 256 355 612 258 961 -97 349 -398 625 -757 695 -79 15 -275 17 -357 3z m355 -582 l0 -193 -75 0 -75 0 0 187 c0 102 3 189 7 192 3 4 37 7 75 7 l68 0 0 -193z m-180 -26 l0 -190 -31 -50 c-28 -44 -31 -57 -27 -105 10 -125 127 -190 244 -137 93 42 125 192 54 256 -18 17 -20 32 -20 197 0 98 4 178 8 178 19 0 101 -61 136 -101 133 -155 142 -376 21 -537 -25 -33 -52 -62 -60 -66 -13 -4 -15 -36 -15 -191 l0 -185 -230 0 -230 0 0 64 0 64 -65 4 c-69 4 -101 21 -139 72 -16 21 -22 47 -26 119 l-5 92 -40 5 c-55 7 -55 24 -5 151 24 59 48 142 56 192 18 109 41 155 113 228 58 57 114 92 186 115 80 25 75 37 75 -175z m171 -216 c41 -22 69 -71 69 -122 0 -52 -44 -108 -97 -122 -34 -10 -42 -9 -95 11 -59 22 -90 133 -52 187 40 56 116 76 175 46z" id="svg_2" fill="#ffffff" fill-opacity="1"/>
<path d="M931 3656 c-7 -8 -11 -27 -9 -43 2 -23 8 -29 35 -31 27 -3 35 1 45 22 9 22 8 29 -7 46 -21 24 -48 26 -64 6z" id="svg_3" fill="#ffffff" fill-opacity="1"/>
<path d="M2506 4105 c-85 -30 -127 -80 -134 -159 -6 -72 2 -98 40 -141 35 -41 72 -61 171 -96 38 -13 80 -33 93 -46 31 -29 32 -76 2 -97 -45 -32 -101 -15 -123 37 l-13 32 -86 0 c-51 0 -86 -4 -86 -10 0 -31 25 -90 50 -119 48 -54 120 -80 220 -80 96 0 148 19 193 74 53 63 59 167 12 230 -33 45 -54 57 -168 104 -120 49 -151 80 -126 124 12 22 23 28 57 30 39 3 44 1 63 -32 l21 -36 84 0 c79 0 84 1 84 21 0 58 -65 135 -138 163 -52 20 -162 20 -216 1z" id="svg_4" fill="#ffffff" fill-opacity="1"/>
<path d="M3823 4106 c-88 -28 -150 -84 -201 -179 -24 -47 -27 -62 -27 -152 0 -87 3 -107 26 -156 34 -73 96 -134 168 -167 46 -22 71 -26 141 -27 73 0 94 4 147 29 194 89 261 338 139 520 -43 64 -114 116 -186 136 -49 14 -157 11 -207 -4z m169 -146 c43 -12 91 -63 108 -116 17 -51 7 -145 -20 -189 -45 -73 -170 -100 -240 -52 -59 40 -75 70 -78 155 -3 66 0 84 20 122 39 74 120 105 210 80z" id="svg_5" fill="#ffffff" fill-opacity="1"/>
<path d="M2990 3770 l0 -340 80 0 79 0 3 118 3 117 102 6 c90 5 107 9 150 35 67 42 97 98 97 184 -1 107 -54 183 -149 209 -22 6 -113 11 -202 11 l-163 0 0 -340z m300 197 c37 -18 54 -56 46 -100 -9 -48 -45 -67 -126 -67 l-60 0 0 83 c0 46 3 87 7 90 11 12 107 7 133 -6z" id="svg_6" fill="#ffffff" fill-opacity="1"/>
<path d="M4350 4045 l0 -65 90 0 90 0 0 -275 0 -275 85 0 85 0 0 275 0 275 90 0 90 0 0 65 0 65 -265 0 -265 0 0 -65z" id="svg_7" fill="#ffffff" fill-opacity="1"/>
<path d="M4970 3770 l0 -340 215 0 215 0 0 65 0 65 -130 0 -130 0 0 75 0 75 115 0 115 0 0 65 0 65 -115 0 -115 0 0 70 0 70 130 0 130 0 0 65 0 65 -215 0 -215 0 0 -340z" id="svg_8" fill="#ffffff" fill-opacity="1"/>
<path d="M5510 3770 l0 -340 80 0 80 0 2 208 3 207 139 -207 139 -208 84 0 83 0 0 340 0 340 -85 0 -85 0 -2 -206 -3 -205 -134 205 -133 206 -84 0 -84 0 0 -340z" id="svg_9" fill="#ffffff" fill-opacity="1"/>
<path d="M6250 3882 c0 -264 7 -303 70 -375 53 -59 111 -82 210 -82 123 1 209 51 256 150 23 48 24 58 24 293 l0 242 -80 0 -80 0 0 -222 c0 -203 -2 -226 -20 -255 -26 -44 -54 -56 -113 -50 -40 3 -55 10 -73 32 -30 38 -34 71 -34 298 l0 197 -80 0 -80 0 0 -228z" id="svg_10" fill="#ffffff" fill-opacity="1"/>
<path d="M2835 3296 c-16 -13 -28 -27 -25 -30 7 -7 70 33 70 45 0 15 -13 10 -45 -15z" id="svg_11" fill="#ffffff" fill-opacity="1"/>
<path d="M3204 3309 c-10 -17 13 -36 27 -22 12 12 4 33 -11 33 -5 0 -12 -5 -16 -11z" id="svg_12" fill="#ffffff" fill-opacity="1"/>
<path d="M2420 3176 c0 -95 3 -116 15 -116 11 0 15 19 17 88 l3 87 35 -87 c24 -60 40 -88 51 -88 11 0 27 28 50 88 l34 87 3 -87 c2 -69 6 -88 17 -88 12 0 15 21 15 115 0 106 -2 115 -19 115 -14 0 -28 -23 -59 -97 l-41 -98 -17 40 c-9 22 -27 65 -39 95 -16 39 -29 56 -44 58 -20 3 -21 0 -21 -112z" id="svg_13" fill="#ffffff" fill-opacity="1"/>
<path d="M6070 3264 c0 -14 -4 -23 -10 -19 -5 3 -10 -1 -10 -9 0 -9 5 -16 10 -16 6 0 10 -28 10 -64 0 -45 5 -69 16 -80 17 -18 64 -22 64 -6 0 6 -4 10 -9 10 -25 0 -41 34 -41 86 0 51 1 54 25 54 16 0 25 6 25 15 0 9 -6 15 -12 14 -28 -3 -38 2 -38 21 0 11 -7 20 -15 20 -9 0 -15 -10 -15 -26z" id="svg_14" fill="#ffffff" fill-opacity="1"/>
<path d="M2747 3243 c-14 -13 -7 -138 9 -161 19 -27 78 -30 106 -5 17 15 18 15 18 0 0 -10 7 -17 15 -17 12 0 15 17 15 96 0 72 -3 95 -12 92 -8 -3 -15 -30 -18 -70 -5 -71 -20 -98 -55 -98 -39 0 -55 30 -55 103 0 62 -6 78 -23 60z" id="svg_15" fill="#ffffff" fill-opacity="1"/>
<path d="M3020 3237 c-27 -14 -38 -53 -21 -70 6 -6 30 -18 54 -27 30 -11 42 -21 42 -35 0 -29 -48 -32 -73 -5 -14 15 -22 18 -27 10 -13 -21 26 -50 66 -50 88 0 91 74 4 102 -29 10 -40 19 -40 33 0 26 52 35 61 11 8 -20 34 -21 34 -2 0 32 -62 53 -100 33z" id="svg_16" fill="#ffffff" fill-opacity="1"/>
<path d="M3363 3240 c-57 -23 -70 -124 -23 -162 35 -28 95 -24 128 9 23 23 24 28 10 31 -9 2 -26 -6 -37 -17 -12 -12 -30 -21 -41 -21 -29 0 -60 36 -60 70 0 59 72 94 104 49 8 -11 22 -19 32 -17 15 3 15 6 -7 31 -26 30 -72 42 -106 27z" id="svg_17" fill="#ffffff" fill-opacity="1"/>
<path d="M3603 3235 c-34 -15 -47 -42 -44 -95 4 -68 84 -108 131 -65 18 16 20 16 20 2 0 -10 7 -17 15 -17 12 0 15 17 15 89 0 86 -14 129 -27 82 -5 -19 -7 -20 -22 -8 -26 23 -54 27 -88 12z m87 -35 c56 -56 -10 -148 -76 -105 -33 21 -34 87 -2 109 30 21 54 20 78 -4z" id="svg_18" fill="#ffffff" fill-opacity="1"/>
<path d="M4094 3237 c-4 -13 -10 -14 -24 -7 -34 18 -85 12 -108 -13 -32 -34 -31 -105 2 -136 29 -27 79 -30 106 -6 20 18 20 17 20 -43 0 -48 3 -62 15 -62 16 0 16 4 17 168 1 55 -4 98 -10 104 -8 8 -13 7 -18 -5z m-26 -33 c44 -30 17 -124 -36 -124 -36 0 -62 29 -62 70 0 40 26 70 60 70 9 0 26 -7 38 -16z" id="svg_19" fill="#ffffff" fill-opacity="1"/>
<path d="M4206 3243 c-3 -3 -6 -33 -6 -65 0 -64 20 -114 47 -120 25 -6 75 9 85 24 5 10 8 8 8 -4 0 -10 7 -18 15 -18 13 0 15 15 13 93 -3 106 -21 125 -26 27 -3 -71 -20 -100 -58 -100 -35 0 -54 36 -54 102 0 53 -9 76 -24 61z" id="svg_20" fill="#ffffff" fill-opacity="1"/>
<path d="M4513 3243 c-60 -11 -85 -112 -38 -158 40 -41 145 -26 145 21 0 20 -16 18 -40 -6 -25 -25 -62 -26 -83 -2 -29 31 -22 54 16 52 89 -5 117 -1 117 19 0 45 -62 84 -117 74z m71 -45 c9 -12 16 -26 16 -30 0 -5 -27 -8 -60 -8 -64 0 -73 9 -43 42 23 25 68 23 87 -4z" id="svg_21" fill="#ffffff" fill-opacity="1"/>
<path d="M4864 3236 c-58 -26 -68 -123 -17 -162 30 -22 96 -17 121 9 39 41 21 51 -27 16 -34 -25 -64 -19 -87 17 -42 63 41 139 91 84 19 -21 45 -27 45 -10 0 15 -38 50 -54 50 -8 0 -20 2 -28 5 -7 2 -27 -2 -44 -9z" id="svg_22" fill="#ffffff" fill-opacity="1"/>
<path d="M5114 3240 c-51 -21 -72 -106 -36 -149 25 -31 72 -42 110 -26 37 16 52 42 52 89 0 63 -69 110 -126 86z m74 -36 c16 -11 22 -25 22 -54 0 -62 -58 -92 -100 -50 -38 38 -13 120 38 120 10 0 28 -7 40 -16z" id="svg_23" fill="#ffffff" fill-opacity="1"/>
<path d="M5320 3155 c0 -78 3 -95 15 -95 12 0 15 14 15 63 0 69 17 97 58 97 38 0 52 -26 52 -96 0 -50 3 -64 15 -64 12 0 15 14 15 70 0 62 -3 74 -25 96 -21 21 -31 24 -58 19 -18 -4 -37 -13 -43 -21 -10 -12 -12 -11 -17 6 -3 11 -10 20 -16 20 -7 0 -11 -33 -11 -95z" id="svg_24" fill="#ffffff" fill-opacity="1"/>
<path d="M5622 3239 c-62 -18 -78 -105 -30 -156 30 -32 96 -32 126 0 12 13 22 26 22 30 0 14 -28 6 -45 -13 -10 -11 -29 -20 -42 -20 -26 0 -66 35 -60 53 3 11 21 13 125 16 48 2 12 80 -43 94 -11 3 -35 1 -53 -4z m72 -35 c32 -32 20 -44 -44 -44 -62 0 -68 8 -37 48 13 17 62 15 81 -4z" id="svg_25" fill="#ffffff" fill-opacity="1"/>
<path d="M5873 3243 c-60 -11 -85 -112 -38 -158 34 -35 96 -35 132 1 18 18 22 29 14 37 -7 7 -17 3 -35 -16 -30 -32 -59 -34 -86 -7 -39 39 -12 120 40 120 11 0 29 -9 41 -21 11 -11 27 -19 36 -17 14 2 12 7 -8 30 -25 27 -58 38 -96 31z" id="svg_26" fill="#ffffff" fill-opacity="1"/>
<path d="M6263 3235 c-35 -15 -55 -62 -46 -108 11 -59 91 -90 133 -52 18 16 20 16 20 2 0 -10 7 -17 15 -17 12 0 15 17 15 90 0 73 -3 90 -15 90 -8 0 -15 -7 -15 -17 0 -14 -2 -15 -17 -1 -28 24 -55 28 -90 13z m87 -35 c56 -56 -10 -148 -76 -105 -33 21 -34 87 -2 109 30 21 54 20 78 -4z" id="svg_27" fill="#ffffff" fill-opacity="1"/>
<path d="M3200 3150 c0 -73 3 -90 15 -90 15 0 18 5 18 35 0 117 -4 145 -18 145 -12 0 -15 -17 -15 -90z" id="svg_28" fill="#ffffff" fill-opacity="1"/>
</g></g></svg>